<mxfile host="Electron" modified="2024-04-07T04:48:21.314Z" agent="Mozilla/5.0 (Windows NT 10.0; Win64; x64) AppleWebKit/537.36 (KHTML, like Gecko) draw.io/24.1.0 Chrome/120.0.6099.109 Electron/28.1.0 Safari/537.36" etag="1ki9cxhhfbMLvHCB-HwW" version="24.1.0" type="device">
  <diagram name="Page-1" id="zzXCOocM78mfNK2ha0tz">
    <mxGraphModel dx="1152" dy="677" grid="1" gridSize="10" guides="1" tooltips="1" connect="1" arrows="1" fold="1" page="1" pageScale="1" pageWidth="850" pageHeight="1100" math="0" shadow="0">
      <root>
        <mxCell id="0" />
        <mxCell id="1" parent="0" />
        <mxCell id="oIF6VKccBdw6HyAFHjOS-10" value="" style="edgeStyle=orthogonalEdgeStyle;rounded=0;orthogonalLoop=1;jettySize=auto;html=1;" edge="1" parent="1" source="oIF6VKccBdw6HyAFHjOS-3" target="oIF6VKccBdw6HyAFHjOS-9">
          <mxGeometry relative="1" as="geometry" />
        </mxCell>
        <mxCell id="oIF6VKccBdw6HyAFHjOS-3" value="Start" style="html=1;dashed=0;whiteSpace=wrap;shape=mxgraph.dfd.start" vertex="1" parent="1">
          <mxGeometry x="270" y="10" width="120" height="40" as="geometry" />
        </mxCell>
        <mxCell id="oIF6VKccBdw6HyAFHjOS-12" value="" style="edgeStyle=orthogonalEdgeStyle;rounded=0;orthogonalLoop=1;jettySize=auto;html=1;" edge="1" parent="1" source="oIF6VKccBdw6HyAFHjOS-9" target="oIF6VKccBdw6HyAFHjOS-11">
          <mxGeometry relative="1" as="geometry" />
        </mxCell>
        <mxCell id="oIF6VKccBdw6HyAFHjOS-9" value="Look out of window" style="whiteSpace=wrap;html=1;dashed=0;" vertex="1" parent="1">
          <mxGeometry x="270" y="120" width="120" height="60" as="geometry" />
        </mxCell>
        <mxCell id="oIF6VKccBdw6HyAFHjOS-14" value="" style="edgeStyle=orthogonalEdgeStyle;rounded=0;orthogonalLoop=1;jettySize=auto;html=1;" edge="1" parent="1" source="oIF6VKccBdw6HyAFHjOS-11" target="oIF6VKccBdw6HyAFHjOS-13">
          <mxGeometry relative="1" as="geometry" />
        </mxCell>
        <mxCell id="oIF6VKccBdw6HyAFHjOS-18" value="" style="edgeStyle=orthogonalEdgeStyle;rounded=0;orthogonalLoop=1;jettySize=auto;html=1;" edge="1" parent="1" source="oIF6VKccBdw6HyAFHjOS-11" target="oIF6VKccBdw6HyAFHjOS-17">
          <mxGeometry relative="1" as="geometry" />
        </mxCell>
        <mxCell id="oIF6VKccBdw6HyAFHjOS-11" value="Is it raining?" style="rhombus;whiteSpace=wrap;html=1;dashed=0;" vertex="1" parent="1">
          <mxGeometry x="290" y="250" width="80" height="80" as="geometry" />
        </mxCell>
        <mxCell id="oIF6VKccBdw6HyAFHjOS-16" value="" style="edgeStyle=orthogonalEdgeStyle;rounded=0;orthogonalLoop=1;jettySize=auto;html=1;" edge="1" parent="1" source="oIF6VKccBdw6HyAFHjOS-13" target="oIF6VKccBdw6HyAFHjOS-15">
          <mxGeometry relative="1" as="geometry" />
        </mxCell>
        <mxCell id="oIF6VKccBdw6HyAFHjOS-20" value="" style="edgeStyle=orthogonalEdgeStyle;rounded=0;orthogonalLoop=1;jettySize=auto;html=1;" edge="1" parent="1" source="oIF6VKccBdw6HyAFHjOS-13" target="oIF6VKccBdw6HyAFHjOS-19">
          <mxGeometry relative="1" as="geometry">
            <Array as="points">
              <mxPoint x="490" y="370" />
              <mxPoint x="490" y="370" />
            </Array>
          </mxGeometry>
        </mxCell>
        <mxCell id="oIF6VKccBdw6HyAFHjOS-13" value="Is it sunny?" style="rhombus;whiteSpace=wrap;html=1;dashed=0;" vertex="1" parent="1">
          <mxGeometry x="450" y="250" width="80" height="80" as="geometry" />
        </mxCell>
        <mxCell id="oIF6VKccBdw6HyAFHjOS-23" style="edgeStyle=orthogonalEdgeStyle;rounded=0;orthogonalLoop=1;jettySize=auto;html=1;entryX=1;entryY=0.5;entryDx=0;entryDy=0;" edge="1" parent="1" source="oIF6VKccBdw6HyAFHjOS-15" target="oIF6VKccBdw6HyAFHjOS-19">
          <mxGeometry relative="1" as="geometry">
            <Array as="points">
              <mxPoint x="670" y="440" />
            </Array>
          </mxGeometry>
        </mxCell>
        <mxCell id="oIF6VKccBdw6HyAFHjOS-15" value="Take a hat" style="whiteSpace=wrap;html=1;dashed=0;" vertex="1" parent="1">
          <mxGeometry x="610" y="340" width="120" height="60" as="geometry" />
        </mxCell>
        <mxCell id="oIF6VKccBdw6HyAFHjOS-17" value="Do Chores" style="whiteSpace=wrap;html=1;dashed=0;" vertex="1" parent="1">
          <mxGeometry x="270" y="410" width="120" height="60" as="geometry" />
        </mxCell>
        <mxCell id="oIF6VKccBdw6HyAFHjOS-19" value="" style="whiteSpace=wrap;html=1;dashed=0;" vertex="1" parent="1">
          <mxGeometry x="430" y="410" width="120" height="60" as="geometry" />
        </mxCell>
        <mxCell id="oIF6VKccBdw6HyAFHjOS-24" value="Stop" style="html=1;dashed=0;whiteSpace=wrap;shape=mxgraph.dfd.start" vertex="1" parent="1">
          <mxGeometry x="250" y="570" width="160" height="50" as="geometry" />
        </mxCell>
        <mxCell id="oIF6VKccBdw6HyAFHjOS-26" style="edgeStyle=orthogonalEdgeStyle;rounded=0;orthogonalLoop=1;jettySize=auto;html=1;entryX=0.5;entryY=0.5;entryDx=0;entryDy=-15;entryPerimeter=0;" edge="1" parent="1" source="oIF6VKccBdw6HyAFHjOS-17" target="oIF6VKccBdw6HyAFHjOS-24">
          <mxGeometry relative="1" as="geometry" />
        </mxCell>
        <mxCell id="oIF6VKccBdw6HyAFHjOS-28" value="No" style="text;html=1;align=center;verticalAlign=middle;resizable=0;points=[];autosize=1;strokeColor=none;fillColor=none;" vertex="1" parent="1">
          <mxGeometry x="385" y="260" width="40" height="30" as="geometry" />
        </mxCell>
        <mxCell id="oIF6VKccBdw6HyAFHjOS-29" value="Yes" style="text;html=1;align=center;verticalAlign=middle;resizable=0;points=[];autosize=1;strokeColor=none;fillColor=none;" vertex="1" parent="1">
          <mxGeometry x="345" y="348" width="40" height="30" as="geometry" />
        </mxCell>
        <mxCell id="oIF6VKccBdw6HyAFHjOS-31" value="Yes" style="text;html=1;align=center;verticalAlign=middle;resizable=0;points=[];autosize=1;strokeColor=none;fillColor=none;" vertex="1" parent="1">
          <mxGeometry x="690" y="288" width="40" height="30" as="geometry" />
        </mxCell>
        <mxCell id="oIF6VKccBdw6HyAFHjOS-32" value="No" style="text;html=1;align=center;verticalAlign=middle;resizable=0;points=[];autosize=1;strokeColor=none;fillColor=none;" vertex="1" parent="1">
          <mxGeometry x="500" y="348" width="40" height="30" as="geometry" />
        </mxCell>
      </root>
    </mxGraphModel>
  </diagram>
</mxfile>
